<?xml version="1.0" standalone="no"?>
<!DOCTYPE svg PUBLIC "-//W3C//DTD SVG 20010904//EN"
 "http://www.w3.org/TR/2001/REC-SVG-20010904/DTD/svg10.dtd">
<svg version="1.0" xmlns="http://www.w3.org/2000/svg"
 width="295.000000pt" height="205.000000pt" viewBox="0 0 295.000000 205.000000"
 preserveAspectRatio="xMidYMid meet">

<g transform="translate(0.000000,205.000000) scale(0.100000,-0.100000)"
fill="#000000" stroke="none">
<path d="M1067 1650 c-71 -115 -137 -220 -147 -232 -16 -20 -29 -23 -104 -27
l-85 -3 -181 -291 c-99 -159 -179 -291 -177 -293 1 -1 76 80 166 182 91 101
170 189 178 195 10 9 21 -6 50 -71 l38 -81 199 326 c158 260 201 324 211 313
48 -53 335 -462 328 -467 -4 -4 -42 -15 -83 -25 l-76 -17 -119 -131 c-66 -72
-128 -142 -140 -156 -20 -26 -20 -26 35 4 196 110 297 164 307 164 6 0 59 -52
118 -115 59 -64 109 -114 111 -112 2 2 -12 61 -31 133 -19 71 -35 137 -35 147
0 10 57 80 128 154 l127 135 148 -153 c110 -115 147 -160 147 -179 0 -14 -20
-70 -45 -125 -44 -99 -44 -99 -13 -60 54 67 124 135 140 135 9 0 65 -54 124
-120 l109 -120 49 0 c44 0 47 1 35 17 -25 31 -671 708 -677 710 -4 2 -59 -42
-122 -97 -63 -55 -117 -99 -121 -98 -4 2 -107 130 -229 286 -122 155 -224 282
-228 282 -4 0 -65 -94 -135 -210z"/>
<path d="M80 566 c0 -4 83 -240 107 -304 15 -41 18 -43 52 -40 l36 3 57 160
c31 88 57 166 57 173 1 9 -9 12 -31 10 -31 -3 -32 -5 -76 -138 l-45 -135 -46
138 -45 137 -33 0 c-18 0 -33 -2 -33 -4z"/>
<path d="M460 395 l0 -175 115 0 115 0 0 30 0 30 -78 0 c-43 0 -81 2 -83 4 -3
3 -3 23 -1 45 l4 41 75 0 74 0 -3 28 c-3 26 -5 27 -75 30 l-73 3 0 39 0 40 80
0 80 0 0 30 0 30 -115 0 -115 0 0 -175z"/>
<path d="M780 395 l0 -175 105 0 105 0 0 30 0 30 -75 0 -75 0 0 145 0 145 -30
0 -30 0 0 -175z"/>
<path d="M1060 394 l0 -175 33 3 32 3 3 173 2 172 -35 0 -35 0 0 -176z"/>
<path d="M1220 395 l0 -175 30 0 29 0 3 82 3 81 63 -81 c61 -79 65 -82 104
-82 38 0 40 1 26 18 -8 9 -41 50 -72 90 -50 64 -56 75 -44 90 7 9 31 40 53 67
75 92 72 85 29 85 -37 0 -43 -5 -99 -77 l-60 -76 -3 76 -3 77 -29 0 -30 0 0
-175z"/>
<path d="M1560 395 l0 -175 30 0 30 0 0 175 0 175 -30 0 -30 0 0 -175z"/>
<path d="M1897 413 c30 -87 57 -166 60 -175 4 -13 16 -18 42 -18 34 0 39 4 48
33 6 17 33 96 61 175 l50 142 -33 0 -34 0 -43 -130 c-23 -72 -45 -130 -48
-130 -3 0 -25 58 -48 130 l-43 130 -34 0 -34 0 56 -157z"/>
<path d="M2220 395 l0 -175 35 0 35 0 0 70 0 70 39 0 39 0 28 -70 c26 -67 28
-70 61 -70 18 0 33 2 33 4 0 2 -14 36 -30 74 l-30 71 25 25 c19 19 25 35 25
70 0 24 -3 52 -6 61 -12 32 -59 45 -159 45 l-95 0 0 -175z m188 103 c7 -7 12
-20 12 -29 0 -32 -29 -49 -81 -49 l-49 0 0 45 0 45 53 0 c29 0 58 -5 65 -12z"/>
<path d="M2570 394 l0 -175 33 3 32 3 3 73 3 72 74 0 75 0 0 -75 0 -75 30 0
30 0 0 175 0 175 -30 0 -30 0 0 -70 0 -70 -75 0 -75 0 0 70 0 70 -35 0 -35 0
0 -176z"/>
</g>
</svg>
